REM DIRINDEX 1\2\4\8,1\2\4\9,1\2\4\10,1\2\5\11,1\2\5\12,1\2\5\13,1\2\5\14,1\2\5\15,1\3\6\16,1\3\6\17,1\3\6\18,1\3\7\19,1\3\7\20,1\3\7\21,1\3\7\22,1\3\7\23
REM DIRNAME "folder01","folder02","folder03","folder04","folder05","folder06","folder07","folder08","folder09","folder10","folder11","folder12","folder13","folder14","folder15","folder16","folder17","folder18","folder19","folder20","folder21","folder22","folder23"
TITLE ""
FILE "LR_black_phrase_E_B05.mp3" MP3
  TRACK 01 AUDIO
    TITLE "0:"
    INDEX 01 00:00:00
  TRACK 02 AUDIO
    TITLE "16:cjc171_09261"
    INDEX 01 00:00:14
  TRACK 03 AUDIO
    TITLE "0:"
    INDEX 01 00:01:41
  TRACK 04 AUDIO
    TITLE "17:cjc171_09262"
    INDEX 01 00:01:72
  TRACK 05 AUDIO
    TITLE "0:"
    INDEX 01 00:04:69
  TRACK 06 AUDIO
    TITLE "18:cjc171_09263"
    INDEX 01 00:05:47
  TRACK 07 AUDIO
    TITLE "0:"
    INDEX 01 00:08:43
  TRACK 08 AUDIO
    TITLE "16:cjc171_09264"
    INDEX 01 00:09:46
  TRACK 09 AUDIO
    TITLE "0:"
    INDEX 01 00:10:73
  TRACK 10 AUDIO
    TITLE "17:cjc171_09265"
    INDEX 01 00:11:30
  TRACK 11 AUDIO
    TITLE "0:"
    INDEX 01 00:14:12
  TRACK 12 AUDIO
    TITLE "18:cjc171_09266"
    INDEX 01 00:14:67
  TRACK 13 AUDIO
    TITLE "0:"
    INDEX 01 00:17:54
  TRACK 14 AUDIO
    TITLE "16:cjc171_09267"
    INDEX 01 00:18:57
  TRACK 15 AUDIO
    TITLE "0:"
    INDEX 01 00:20:37
  TRACK 16 AUDIO
    TITLE "17:cjc171_09268"
    INDEX 01 00:20:68
  TRACK 17 AUDIO
    TITLE "0:"
    INDEX 01 00:22:67
  TRACK 18 AUDIO
    TITLE "18:cjc171_09269"
    INDEX 01 00:23:45
  TRACK 19 AUDIO
    TITLE "0:"
    INDEX 01 00:25:46
  TRACK 20 AUDIO
    TITLE "16:cjc171_09270"
    INDEX 01 00:26:43
  TRACK 21 AUDIO
    TITLE "0:"
    INDEX 01 00:27:66
  TRACK 22 AUDIO
    TITLE "17:cjc171_09271"
    INDEX 01 00:28:13
  TRACK 23 AUDIO
    TITLE "0:"
    INDEX 01 00:30:54
  TRACK 24 AUDIO
    TITLE "18:cjc171_09272"
    INDEX 01 00:31:25
  TRACK 25 AUDIO
    TITLE "0:"
    INDEX 01 00:33:69
  TRACK 26 AUDIO
    TITLE "16:cjc171_09273"
    INDEX 01 00:34:64
  TRACK 27 AUDIO
    TITLE "0:"
    INDEX 01 00:36:24
  TRACK 28 AUDIO
    TITLE "17:cjc171_09274"
    INDEX 01 00:36:53
  TRACK 29 AUDIO
    TITLE "0:"
    INDEX 01 00:39:06
  TRACK 30 AUDIO
    TITLE "18:cjc171_09275"
    INDEX 01 00:39:57
  TRACK 31 AUDIO
    TITLE "0:"
    INDEX 01 00:42:11
  TRACK 32 AUDIO
    TITLE "16:cjc171_09276"
    INDEX 01 00:43:08
  TRACK 33 AUDIO
    TITLE "0:"
    INDEX 01 00:44:15
  TRACK 34 AUDIO
    TITLE "17:cjc171_09277"
    INDEX 01 00:44:37
  TRACK 35 AUDIO
    TITLE "0:"
    INDEX 01 00:47:12
  TRACK 36 AUDIO
    TITLE "18:cjc171_09278"
    INDEX 01 00:47:59
  TRACK 37 AUDIO
    TITLE "0:"
    INDEX 01 00:50:34
  TRACK 38 AUDIO
    TITLE "16:cjc171_09279"
    INDEX 01 00:51:37
  TRACK 39 AUDIO
    TITLE "0:"
    INDEX 01 00:52:58
  TRACK 40 AUDIO
    TITLE "17:cjc171_09280"
    INDEX 01 00:53:12
  TRACK 41 AUDIO
    TITLE "0:"
    INDEX 01 00:55:29
  TRACK 42 AUDIO
    TITLE "18:cjc171_09281"
    INDEX 01 00:56:07
  TRACK 43 AUDIO
    TITLE "0:"
    INDEX 01 00:58:23
  TRACK 44 AUDIO
    TITLE "16:cjc171_09282"
    INDEX 01 00:59:27
  TRACK 45 AUDIO
    TITLE "0:"
    INDEX 01 01:00:36
  TRACK 46 AUDIO
    TITLE "17:cjc171_09283"
    INDEX 01 01:00:63
  TRACK 47 AUDIO
    TITLE "0:"
    INDEX 01 01:03:17
  TRACK 48 AUDIO
    TITLE "18:cjc171_09284"
    INDEX 01 01:03:72
  TRACK 49 AUDIO
    TITLE "0:"
    INDEX 01 01:06:23
  TRACK 50 AUDIO
    TITLE "16:cjc171_09285"
    INDEX 01 01:07:30
  TRACK 51 AUDIO
    TITLE "0:"
    INDEX 01 01:08:47
  TRACK 52 AUDIO
    TITLE "17:cjc171_09286"
    INDEX 01 01:09:00
  TRACK 53 AUDIO
    TITLE "0:"
    INDEX 01 01:11:63
  TRACK 54 AUDIO
    TITLE "18:cjc171_09287"
    INDEX 01 01:12:41
  TRACK 55 AUDIO
    TITLE "0:"
    INDEX 01 01:15:30
  TRACK 56 AUDIO
    TITLE "16:cjc171_09288"
    INDEX 01 01:16:33
  TRACK 57 AUDIO
    TITLE "0:"
    INDEX 01 01:17:58
  TRACK 58 AUDIO
    TITLE "17:cjc171_09289"
    INDEX 01 01:18:06
  TRACK 59 AUDIO
    TITLE "0:"
    INDEX 01 01:20:09
  TRACK 60 AUDIO
    TITLE "18:cjc171_09290"
    INDEX 01 01:20:54
  TRACK 61 AUDIO
    TITLE "0:"
    INDEX 01 01:22:61
  TRACK 62 AUDIO
    TITLE "16:cjc171_09291"
    INDEX 01 01:23:55
  TRACK 63 AUDIO
    TITLE "0:"
    INDEX 01 01:25:09
  TRACK 64 AUDIO
    TITLE "17:cjc171_09292"
    INDEX 01 01:25:30
  TRACK 65 AUDIO
    TITLE "0:"
    INDEX 01 01:28:46
  TRACK 66 AUDIO
    TITLE "18:cjc171_09293"
    INDEX 01 01:29:16
  TRACK 67 AUDIO
    TITLE "0:"
    INDEX 01 01:32:34
  TRACK 68 AUDIO
    TITLE "16:cjc171_09294"
    INDEX 01 01:33:30
  TRACK 69 AUDIO
    TITLE "0:"
    INDEX 01 01:34:56
  TRACK 70 AUDIO
    TITLE "17:cjc171_09295"
    INDEX 01 01:34:74
  TRACK 71 AUDIO
    TITLE "0:"
    INDEX 01 01:37:23
  TRACK 72 AUDIO
    TITLE "18:cjc171_09296"
    INDEX 01 01:37:67
  TRACK 73 AUDIO
    TITLE "0:"
    INDEX 01 01:40:16
  TRACK 74 AUDIO
    TITLE "16:cjc171_09297"
    INDEX 01 01:41:15
  TRACK 75 AUDIO
    TITLE "0:"
    INDEX 01 01:42:36
  TRACK 76 AUDIO
    TITLE "17:cjc171_09298"
    INDEX 01 01:42:68
  TRACK 77 AUDIO
    TITLE "0:"
    INDEX 01 01:46:13
  TRACK 78 AUDIO
    TITLE "18:cjc171_09299"
    INDEX 01 01:46:67
  TRACK 79 AUDIO
    TITLE "0:"
    INDEX 01 01:50:14
  TRACK 80 AUDIO
    TITLE "16:cjc171_09300"
    INDEX 01 01:51:18
  TRACK 81 AUDIO
    TITLE "0:"
    INDEX 01 01:52:50
  TRACK 82 AUDIO
    TITLE "17:cjc171_09301"
    INDEX 01 01:53:15
  TRACK 83 AUDIO
    TITLE "0:"
    INDEX 01 01:55:63
  TRACK 84 AUDIO
    TITLE "18:cjc171_09302"
    INDEX 01 01:56:42
  TRACK 85 AUDIO
    TITLE "0:"
    INDEX 01 01:59:17
  TRACK 86 AUDIO
    TITLE "16:cjc171_09303"
    INDEX 01 02:00:24
  TRACK 87 AUDIO
    TITLE "0:"
    INDEX 01 02:01:59
  TRACK 88 AUDIO
    TITLE "17:cjc171_09304"
    INDEX 01 02:02:12
  TRACK 89 AUDIO
    TITLE "0:"
    INDEX 01 02:04:65
  TRACK 90 AUDIO
    TITLE "18:cjc171_09305"
    INDEX 01 02:05:45
  TRACK 91 AUDIO
    TITLE "0:"
    INDEX 01 02:08:24
  TRACK 92 AUDIO
    TITLE "16:cjc171_09306"
    INDEX 01 02:09:22
  TRACK 93 AUDIO
    TITLE "0:"
    INDEX 01 02:10:37
  TRACK 94 AUDIO
    TITLE "17:cjc171_09307"
    INDEX 01 02:10:54
  TRACK 95 AUDIO
    TITLE "0:"
    INDEX 01 02:12:65
  TRACK 96 AUDIO
    TITLE "18:cjc171_09308"
    INDEX 01 02:13:35
  TRACK 97 AUDIO
    TITLE "0:"
    INDEX 01 02:15:44
  TRACK 98 AUDIO
    TITLE "16:cjc171_09309"
    INDEX 01 02:16:39
  TRACK 99 AUDIO
    TITLE "0:"
    INDEX 01 02:17:45
  TRACK 100 AUDIO
    TITLE "17:cjc171_09310"
    INDEX 01 02:17:64
  TRACK 101 AUDIO
    TITLE "0:"
    INDEX 01 02:20:08
  TRACK 102 AUDIO
    TITLE "18:cjc171_09311"
    INDEX 01 02:20:53
  TRACK 103 AUDIO
    TITLE "0:"
    INDEX 01 02:22:71
  TRACK 104 AUDIO
    TITLE "16:cjc171_09312"
    INDEX 01 02:23:65
  TRACK 105 AUDIO
    TITLE "0:"
    INDEX 01 02:25:13
  TRACK 106 AUDIO
    TITLE "17:cjc171_09313"
    INDEX 01 02:25:34
  TRACK 107 AUDIO
    TITLE "0:"
    INDEX 01 02:27:70
  TRACK 108 AUDIO
    TITLE "18:cjc171_09314"
    INDEX 01 02:28:40
  TRACK 109 AUDIO
    TITLE "0:"
    INDEX 01 02:31:03
  TRACK 110 AUDIO
    TITLE "16:cjc171_09315"
    INDEX 01 02:32:01
  TRACK 111 AUDIO
    TITLE "0:"
    INDEX 01 02:33:18
  TRACK 112 AUDIO
    TITLE "17:cjc171_09316"
    INDEX 01 02:33:47
  TRACK 113 AUDIO
    TITLE "0:"
    INDEX 01 02:37:20
  TRACK 114 AUDIO
    TITLE "18:cjc171_09317"
    INDEX 01 02:38:00
  TRACK 115 AUDIO
    TITLE "0:"
    INDEX 01 02:41:45
  TRACK 116 AUDIO
    TITLE "16:cjc171_09318"
    INDEX 01 02:42:52
  TRACK 117 AUDIO
    TITLE "0:"
    INDEX 01 02:43:73
  TRACK 118 AUDIO
    TITLE "17:cjc171_09319"
    INDEX 01 02:44:30
  TRACK 119 AUDIO
    TITLE "0:"
    INDEX 01 02:47:22
  TRACK 120 AUDIO
    TITLE "18:cjc171_09320"
    INDEX 01 02:48:02
  TRACK 121 AUDIO
    TITLE "0:"
    INDEX 01 02:50:69
  TRACK 122 AUDIO
    TITLE "16:cjc171_09321"
    INDEX 01 02:52:00
  TRACK 123 AUDIO
    TITLE "0:"
    INDEX 01 02:53:03
  TRACK 124 AUDIO
    TITLE "17:cjc171_09322"
    INDEX 01 02:53:33
  TRACK 125 AUDIO
    TITLE "0:"
    INDEX 01 02:55:61
  TRACK 126 AUDIO
    TITLE "18:cjc171_09323"
    INDEX 01 02:56:43
  TRACK 127 AUDIO
    TITLE "0:"
    INDEX 01 02:58:73
  TRACK 128 AUDIO
    TITLE "16:cjc171_09324"
    INDEX 01 02:59:74
  TRACK 129 AUDIO
    TITLE "0:"
    INDEX 01 03:01:03
  TRACK 130 AUDIO
    TITLE "17:cjc171_09325"
    INDEX 01 03:01:22
  TRACK 131 AUDIO
    TITLE "0:"
    INDEX 01 03:03:41
  TRACK 132 AUDIO
    TITLE "18:cjc171_09326"
    INDEX 01 03:04:09
  TRACK 133 AUDIO
    TITLE "0:"
    INDEX 01 03:06:27
  TRACK 134 AUDIO
    TITLE "16:cjc171_09327"
    INDEX 01 03:07:23
  TRACK 135 AUDIO
    TITLE "0:"
    INDEX 01 03:08:40
  TRACK 136 AUDIO
    TITLE "17:cjc171_09328"
    INDEX 01 03:08:69
  TRACK 137 AUDIO
    TITLE "0:"
    INDEX 01 03:11:07
  TRACK 138 AUDIO
    TITLE "18:cjc171_09329"
    INDEX 01 03:11:58
  TRACK 139 AUDIO
    TITLE "0:"
    INDEX 01 03:13:69
  TRACK 140 AUDIO
    TITLE "16:cjc171_09330"
    INDEX 01 03:14:70
  TRACK 141 AUDIO
    TITLE "0:"
    INDEX 01 03:16:16
  TRACK 142 AUDIO
    TITLE "17:cjc171_09331"
    INDEX 01 03:16:39
  TRACK 143 AUDIO
    TITLE "0:"
    INDEX 01 03:18:46
  TRACK 144 AUDIO
    TITLE "18:cjc171_09332"
    INDEX 01 03:19:22
  TRACK 145 AUDIO
    TITLE "0:"
    INDEX 01 03:21:31
  TRACK 146 AUDIO
    TITLE "16:cjc171_09333"
    INDEX 01 03:22:38
  TRACK 147 AUDIO
    TITLE "0:"
    INDEX 01 03:23:49
  TRACK 148 AUDIO
    TITLE "17:cjc171_09334"
    INDEX 01 03:24:08
  TRACK 149 AUDIO
    TITLE "0:"
    INDEX 01 03:26:40
  TRACK 150 AUDIO
    TITLE "18:cjc171_09335"
    INDEX 01 03:27:20
  TRACK 151 AUDIO
    TITLE "0:"
    INDEX 01 03:29:52
  TRACK 152 AUDIO
    TITLE "16:cjc171_09336"
    INDEX 01 03:30:57
  TRACK 153 AUDIO
    TITLE "0:"
    INDEX 01 03:31:64
  TRACK 154 AUDIO
    TITLE "17:cjc171_09337"
    INDEX 01 03:32:19
  TRACK 155 AUDIO
    TITLE "0:"
    INDEX 01 03:34:10
  TRACK 156 AUDIO
    TITLE "18:cjc171_09338"
    INDEX 01 03:34:65
  TRACK 157 AUDIO
    TITLE "0:"
    INDEX 01 03:36:56
  TRACK 158 AUDIO
    TITLE "16:cjc171_09339"
    INDEX 01 03:37:59
  TRACK 159 AUDIO
    TITLE "0:"
    INDEX 01 03:39:11
  TRACK 160 AUDIO
    TITLE "17:cjc171_09340"
    INDEX 01 03:39:42
  TRACK 161 AUDIO
    TITLE "0:"
    INDEX 01 03:42:45
  TRACK 162 AUDIO
    TITLE "18:cjc171_09341"
    INDEX 01 03:43:25
  TRACK 163 AUDIO
    TITLE "0:"
    INDEX 01 03:46:27
  TRACK 164 AUDIO
    TITLE "16:cjc171_09342"
    INDEX 01 03:47:26
  TRACK 165 AUDIO
    TITLE "0:"
    INDEX 01 03:48:39
  TRACK 166 AUDIO
    TITLE "17:cjc171_09343"
    INDEX 01 03:48:61
  TRACK 167 AUDIO
    TITLE "0:"
    INDEX 01 03:51:01
  TRACK 168 AUDIO
    TITLE "18:cjc171_09344"
    INDEX 01 03:51:48
  TRACK 169 AUDIO
    TITLE "0:"
    INDEX 01 03:53:60
  TRACK 170 AUDIO
    TITLE "16:cjc171_09345"
    INDEX 01 03:54:58
  TRACK 171 AUDIO
    TITLE "0:"
    INDEX 01 03:56:04
  TRACK 172 AUDIO
    TITLE "17:cjc171_09346"
    INDEX 01 03:56:27
  TRACK 173 AUDIO
    TITLE "0:"
    INDEX 01 03:58:26
  TRACK 174 AUDIO
    TITLE "18:cjc171_09347"
    INDEX 01 03:58:71
  TRACK 175 AUDIO
    TITLE "0:"
    INDEX 01 04:00:72
  TRACK 176 AUDIO
    TITLE "16:cjc171_09348"
    INDEX 01 04:01:69
  TRACK 177 AUDIO
    TITLE "0:"
    INDEX 01 04:03:04
  TRACK 178 AUDIO
    TITLE "17:cjc171_09349"
    INDEX 01 04:03:27
  TRACK 179 AUDIO
    TITLE "0:"
    INDEX 01 04:05:05
  TRACK 180 AUDIO
    TITLE "18:cjc171_09350"
    INDEX 01 04:05:50
  TRACK 181 AUDIO
    TITLE "0:"
    INDEX 01 04:07:27
